<svg xmlns="http://www.w3.org/2000/svg" viewBox="0 0 207.62 343.79"><defs><style>.cls-1{fill:#4d4d4d;}.cls-2{fill:#f4550a;}.cls-3{fill:#fff;}</style></defs><title>Pursuance</title><g id="Layer_2" data-name="Layer 2"><g id="Layer_1-2" data-name="Layer 1"><path class="cls-1" d="M112.67,287.79a28,28,0,1,0,17.24,5.94L146.3,256l-13.76-6L116,288A28.23,28.23,0,0,0,112.67,287.79Z"/><path class="cls-1" d="M84.67,28A28,28,0,0,0,116,55.79l16.5,38,13.76-6L129.91,50.06A28,28,0,1,0,84.67,28Z"/><path class="cls-1" d="M2.34,160.5a28,28,0,1,0,52.48,19.22l41.43.08,0-15-41.17-.08A28,28,0,0,0,2.34,160.5Z"/><circle class="cls-2" cx="111.67" cy="320.06" r="19"/><circle class="cls-2" cx="24.67" cy="172.06" r="19"/><circle class="cls-2" cx="110.99" cy="23.42" r="19"/><path class="cls-2" d="M149.93,251.42H128c-35.19,0-47,0-64-64V158.18c19-77.77,30-66.77,66.77-66.77h10.15A47.22,47.22,0,0,1,188,138.5v74.86A38.17,38.17,0,0,1,149.93,251.42Z"/><path class="cls-3" d="M179.61,147l-31.09-22.36a12.19,12.19,0,0,0-14.14,0l-50,36a13.41,13.41,0,0,0,0,21.78l50,36a12.19,12.19,0,0,0,14.14,0l31.09-22.36A30.19,30.19,0,0,0,179.61,147Z"/><path class="cls-1" d="M189.95,239.81l16.79-41.57c3.58-8.86-4.6-18.51-8-27,3.51-8.65,11.61-18.56,7.78-27.57L189,102.44a35.94,35.94,0,0,0-36.48-21.73l-47.59,4.52a35.94,35.94,0,0,0-31.52,27.28L62.5,157.17A35.87,35.87,0,0,0,62,171.58a35.86,35.86,0,0,0,.56,15.76l11.66,44.46a35.94,35.94,0,0,0,32,26.71l47.67,3.67A35.94,35.94,0,0,0,189.95,239.81ZM65.59,168.09l.66-2.71a16.91,16.91,0,0,1,6.83-8l43.27-26.33a16.94,16.94,0,0,1,19.6,1.41l40,33.08.24.2a7.24,7.24,0,0,1,.08,10.9l-.05,0L136.8,210.51a16.94,16.94,0,0,1-19.57,1.76L73.5,186.72A16.94,16.94,0,0,1,65.59,168.09Zm12-49.22A16.94,16.94,0,0,1,92.42,106l51.7-4.91a16.94,16.94,0,0,1,17.2,10.24l11,25.91-12.87-10.63a35.94,35.94,0,0,0-41.58-3l-39.26,23.9A35.86,35.86,0,0,0,68.28,157Zm67.65,122.89-51.78-4a16.94,16.94,0,0,1-15.08-12.59L68.23,186.62A35.86,35.86,0,0,0,79.29,196.7L119,219.89a35.94,35.94,0,0,0,41.52-3.74l11.94-10.23-10.21,25.3A16.94,16.94,0,0,1,145.21,241.76Z"/><path class="cls-1" d="M111,184.51V147.41h18.55a18.55,18.55,0,1,1,0,37.09h-5.08a2.84,2.84,0,0,0-2.84,2.84v10.23a2.84,2.84,0,0,1-2.84,2.84H111Zm18.55-10.56a8,8,0,0,0,8-8A7.82,7.82,0,0,0,135,160.2a7.91,7.91,0,0,0-5.52-2.2H125c-2.13,0-3.41,1.27-3.41,2.84v10.24a2.84,2.84,0,0,0,2.83,2.84Z"/></g></g></svg>
